<svg version="1.1" id="Layer_1" xmlns="http://www.w3.org/2000/svg" xmlns:xlink="http://www.w3.org/1999/xlink" x="0px" y="0px"
	 width="100%" viewBox="0 0 305 73" enable-background="new 0 0 305 73" xml:space="preserve">
<path fill="#000000" opacity="1.000000" stroke="none" 
	d="
M306.000000,12.000000 
	C306.000000,32.654346 306.000000,53.308697 306.000000,73.981522 
	C204.406265,73.981522 102.812515,73.981522 1.109385,73.981522 
	C1.109385,49.754536 1.109385,25.508410 1.109385,1.000000 
	C98.687401,1.000000 196.375046,1.000000 294.863342,1.284153 
	C293.684631,4.404101 291.309174,7.175651 294.254822,10.769814 
	C297.124786,14.271638 300.354828,14.613435 304.042633,12.030427 
	C304.485107,11.720501 305.337555,11.995901 306.000000,12.000000 
M270.334076,28.167686 
	C266.293884,23.993546 262.253693,19.819405 258.528320,15.970550 
	C250.820633,23.687042 243.577515,30.938416 236.373230,38.150928 
	C243.427689,45.010864 250.764481,52.145351 257.658356,58.849144 
	C264.551086,51.990536 271.853973,44.723808 279.585327,37.030739 
	C276.813568,34.382027 273.824005,31.525164 270.334076,28.167686 
z"/>
<path fill="#F0ADB2" opacity="1.000000" stroke="none" 
	d="
M306.000000,11.517044 
	C305.337555,11.995901 304.485107,11.720501 304.042633,12.030427 
	C300.354828,14.613435 297.124786,14.271638 294.254822,10.769814 
	C291.309174,7.175651 293.684631,4.404101 295.331970,1.284153 
	C298.587219,1.000000 302.174408,1.000000 306.000000,1.000000 
	C306.000000,4.342551 306.000000,7.688319 306.000000,11.517044 
z"/>
<path fill="#EDAAAF" opacity="1.000000" stroke="none" 
	d="
M270.584259,28.417995 
	C273.824005,31.525164 276.813568,34.382027 279.585327,37.030739 
	C271.853973,44.723808 264.551086,51.990536 257.658356,58.849144 
	C250.764481,52.145351 243.427689,45.010864 236.373230,38.150928 
	C243.577515,30.938416 250.820633,23.687042 258.528320,15.970550 
	C262.253693,19.819405 266.293884,23.993546 270.584259,28.417995 
z"/>
</svg>